<?xml version="1.0" encoding="utf-8"?>
<svg xmlns="http://www.w3.org/2000/svg" height="256" width="256" viewBox="0 0 256 256">
  <g>
    <path id="path1" transform="rotate(0,128,128) translate(22.6679207486917,0) scale(8.00000190734909,8.00000190734909)  " fill="#587DC8" d="M12.348859,24.224023C12.885881,24.236047 13.028857,24.511041 13.028857,24.511041 13.028857,24.511041 13.444876,25.330041 13.619865,25.629022 13.796869,25.933038 13.294882,25.988032 13.294882,25.988032 13.294882,25.988032 11.690864,26.535029 11.063845,26.620051 10.434843,26.703029 10.354855,26.373042 10.354855,26.373042 10.354855,26.373042 10.013849,25.861047 9.783837,25.222039 9.5758273,24.647027 10.099848,24.68905 10.099848,24.68905L12.236859,24.226037C12.27586,24.224023,12.313855,24.224023,12.348859,24.224023z M11.030856,21.282033C11.568854,21.291036 11.709846,21.570027 11.709846,21.570027 11.709846,21.570027 12.120861,22.385032 12.302869,22.687034 12.477858,22.99105 11.973857,23.045035 11.973857,23.045035 11.973857,23.045035 10.287839,23.44802 9.6568524,23.532035 9.0298325,23.613029 8.949846,23.284049 8.949846,23.284049 8.949846,23.284049 8.6088397,22.772025 8.3788268,22.12902 8.1678264,21.557027 8.6978299,21.598042 8.6978299,21.598042L10.917848,21.284047C10.95685,21.282033,10.994845,21.281026,11.030856,21.282033z M22.049925,20.916036C22.672945,20.889028 22.897953,21.515035 22.897953,21.515035 22.897953,21.515035 23.21894,22.076041 23.393959,22.381034 23.568948,22.681022 23.071935,22.736045 23.071935,22.736045 23.071935,22.736045 21.525934,23.364036 20.89394,23.446036 20.267929,23.52703 20.18791,23.201041 20.18791,23.201041 20.18791,23.201041 19.846935,22.686027 19.61091,22.045035 19.408912,21.472035 19.932934,21.512044 19.932934,21.512044z M20.727922,18.305041C21.353935,18.27904 21.547937,18.759021 21.547937,18.759021 21.547937,18.759021 21.963926,19.578021 22.137937,19.879016 22.312927,20.179036 21.81393,20.236043 21.81393,20.236043 21.81393,20.236043 20.261917,20.753041 19.632913,20.833028 19.00391,20.916036 18.834903,20.447041 18.834903,20.447041 18.834903,20.447041 18.499908,19.934039 18.266905,19.294024 18.058895,18.721026 18.585909,18.759021 18.585909,18.759021z M9.5168359,17.85402C10.055842,17.865037 10.199856,18.144031 10.199856,18.144031 10.199856,18.144031 10.614836,18.961017 10.789857,19.262042 10.963838,19.56203 10.465849,19.61803 10.465849,19.61803 10.465849,19.61803 8.824845,19.993031 8.1988322,20.075032 7.5668394,20.15804 7.4868213,19.829028 7.4868213,19.829028 7.4868213,19.829028 7.1488368,19.314044 6.9188239,18.676043 6.7078235,18.102038 7.2348358,18.142016 7.2348358,18.142016L9.4038283,17.856034C9.4438378,17.85402,9.4818322,17.853044,9.5168359,17.85402z M14.159878,16.891038C14.766878,16.900041 15.304876,17.259019 15.453894,17.815019 15.625893,18.49602 15.15189,19.216022 14.383879,19.416034 13.607872,19.62102 12.842851,19.229022 12.662857,18.546039 12.482863,17.863023 12.961871,17.147019 13.732873,16.94304 13.875879,16.905015 14.019863,16.889024 14.159878,16.891038z M19.319923,15.412032C19.948925,15.384017 20.117933,15.842026 20.117933,15.842026 20.117933,15.842026 20.524919,16.657029 20.707933,16.95604 20.882923,17.257035 20.383926,17.316026 20.383926,17.316026 20.383926,17.316026 18.7399,17.690019 18.116911,17.771043 17.484916,17.852036 17.401909,17.524034 17.401909,17.524034 17.401909,17.524034 17.063892,17.011033 16.827898,16.372025 16.625902,15.799026 17.152914,15.840042 17.152914,15.840042z M12.823869,6.9370184L12.749863,10.241037 15.866893,8.1360245 16.6989,8.4440078C17.233907,9.6090183 18.372925,12.079021 18.873905,13.158032 19.544931,14.59703 17.538902,14.803023 17.538902,14.803023 17.538902,14.803023 10.964845,15.829025 8.447828,16.138017 5.928826,16.444016 5.6208093,15.417037 5.6208093,15.417037 5.6208093,15.417037 4.321788,12.959027 3.4597818,9.9200229 2.6887795,7.195014 4.797805,7.4540171 4.797805,7.4540171z M12.11787,5.7170157L12.377851,5.9520321C8.6648394,6.1980037 3.9777912,6.4800172 3.9777912,6.4800172 3.9777912,6.4800172 2.6897866,6.6330323 1.9717942,7.4030223 1.9717939,7.4030223 0.74177324,7.5070262 2.6897866,13.211011L7.4198348,26.669032C7.4198348,26.669032 8.2928273,29.547055 12.812853,28.108029 17.330892,26.669032 23.961958,24.151025 23.961958,24.151025 23.961958,24.151025 26.01898,23.432029 24.216964,19.682025 22.87595,16.885026 20.275924,11.743023 19.045902,9.3130274L19.438911,9.4580164C19.904918,10.287027 24.937948,20.609029 26.070982,22.816031 27.198982,25.024041 24.319961,27.234035 24.319961,27.234035 24.319961,27.234035 17.435905,29.907041 12.039866,31.550048 6.6498091,33.194034 5.7768165,29.804044 5.7768165,29.804044 5.7768165,29.804044 1.0517732,14.750014 0.12375691,11.102031 -0.3392289,9.2780237 0.57276558,8.0590286 1.6007886,7.2940135 2.6257908,6.530005 3.7677981,6.2230282 3.7677979,6.2230282L9.2158391,5.8620052z M15.67289,0L17.690912,3.2020292 21.98895,3.4540133 19.377906,5.898016 20.89394,8.9310083 16.343885,7.2450328 13.22588,9.3540125 13.31188,5.4760184 10.614836,3.032016 14.572876,3.2840299z" />
  </g>
</svg>

